<svg width="1438" height="180" fill="none" xmlns="http://www.w3.org/2000/svg"><path opacity=".196" fill-rule="evenodd" clip-rule="evenodd" d="M90.36 83.28v31.68h34.8c-7.44 10.8-20.64 17.76-34.8 17.76-22.08 0-42.48-18-42.48-42.72S67.8 47.28 90.36 47.28c12.24 0 22.32 4.8 30 12l33.36-33.12C137.4 10.08 115.08 0 90.36 0 40.68 0 .6 40.32.6 90s40.08 90 89.76 90c49.68 0 90-40.32 90-90v-6.72h-90zM365.16 180h-54.48l-27.84-47.76h-29.28V180h-47.28V0h75.84c36.48 0 66.24 29.76 66.24 66.24 0 19.2-8.4 36.48-21.36 48.48L365.16 180zm23.28 0h111.84v-38.64h-64.56v-33.12h57.12V68.4h-57.12V39.12h64.56V0H388.44v180zm257.52 0H534.12V0h111.84v39.12H581.4V68.4h57.12v39.84H581.4v33.12h64.56V180zm33.84 0h111.84v-38.64h-64.56v-33.12h57.12V68.4h-57.12V39.12h64.56V0H679.8v180zM929.88 0h47.28v180h-19.44l-84.96-85.2V180h-47.28V0h19.2l85.2 84.96V0zm232.56 26.16C1146.12 9.84 1123.8 0 1099.08 0c-49.68 0-90 40.32-90 90s40.32 90 90 90c24.96 0 47.52-10.32 63.84-26.64l-33.6-33.12c-7.44 7.68-18 12-30.24 12-24.48 0-42.24-17.76-42.24-42.24s17.76-42.24 42.24-42.24c12.24 0 22.8 4.32 30.24 11.76l33.12-33.36zM1285.08 0c-49.68 0-89.76 40.56-89.76 90.24 0 49.68 40.08 89.76 89.76 89.76 49.68 0 90-40.08 90-89.76 0-49.68-40.32-90.24-90-90.24zm133.44 180c-10.8 0-18.96-8.64-18.96-19.44s8.16-18.96 18.96-18.96 18.96 8.16 18.96 18.96-8.16 19.44-18.96 19.44z" fill="#7A797A"/></svg>