<svg width="53" height="39" fill="none" xmlns="http://www.w3.org/2000/svg"><path fill-rule="evenodd" clip-rule="evenodd" d="M28.374.583a3.442 3.442 0 00-3.833 0L.507 16.692c-.935.626-.491 2.084.635 2.084h7.683c.029 0 .051 18.874.051 18.874 0 .746.606 1.35 1.353 1.35h6.226c.77 0 1.395-.624 1.395-1.394v-9.668c0-4.593 3.444-8.652 8.033-8.954a8.53 8.53 0 016.648 2.508 8.525 8.525 0 012.53 6.063v10.162c0 .709.575 1.283 1.283 1.283h6.35c.747 0 1.352-.605 1.352-1.35V18.826c0-.028 7.85-.051 7.85-.051 1.088 0 1.518-1.41.614-2.016L28.374.583z" fill="#B7BBB2"/><path fill-rule="evenodd" clip-rule="evenodd" d="M28 26.5a1.5 1.5 0 11-2.999 0 1.5 1.5 0 012.999 0z" fill="#B7BBB2"/><path fill-rule="evenodd" clip-rule="evenodd" d="M26.185 35c-.102 0-.185-.099-.185-.22v-8.562c0-.12.083-.218.185-.218.101 0 .184.099.184.218v8.562c0 .121-.083.22-.184.22z" fill="#B7BBB2"/><path fill-rule="evenodd" clip-rule="evenodd" d="M29.198 39h-5.397a.843.843 0 01-.836-.688l-.952-5.336a.836.836 0 01.834-.976h7.305c.527 0 .926.467.835.976l-.953 5.336a.844.844 0 01-.835.688zm-4.574-15.307c.303.708.419 1.434.362 2.042-.023.248-.21.34-.401.199-.469-.35-.908-.92-1.21-1.629-.303-.708-.42-1.433-.36-2.04.023-.25.211-.34.403-.196.468.352.904.916 1.206 1.624zm4.896.695c-.323.704-.75 1.247-1.186 1.56-.178.128-.333.013-.334-.25-.003-.637.16-1.384.48-2.089.323-.703.75-1.245 1.187-1.557.178-.128.334-.01.333.253 0 .64-.16 1.38-.48 2.083zM27 22.015c-.014.715-.154 1.363-.371 1.84-.09.196-.239.192-.321-.007-.202-.488-.32-1.15-.307-1.865.012-.715.152-1.363.371-1.84.09-.196.239-.19.32.012.202.492.32 1.145.307 1.86z" fill="#B7BBB2"/></svg>