<svg width="17" height="17" fill="none" xmlns="http://www.w3.org/2000/svg"><mask id="a" maskUnits="userSpaceOnUse" x="0" y="0" width="17" height="17"><path fill-rule="evenodd" clip-rule="evenodd" d="M16.897.103H0V17h16.897V.103z" fill="#fff"/></mask><g mask="url(#a)"><path fill-rule="evenodd" clip-rule="evenodd" d="M15.197 11.966a3.334 3.334 0 01-3.334 3.334h-6.83A3.334 3.334 0 011.7 11.966v-6.83a3.334 3.334 0 013.333-3.333h6.83a3.334 3.334 0 013.334 3.334v6.83zM11.863.103h-6.83A5.04 5.04 0 000 5.137v6.83A5.04 5.04 0 005.033 17h6.83a5.04 5.04 0 005.034-5.034v-6.83A5.04 5.04 0 0011.863.104z" fill="#fff"/></g><path fill-rule="evenodd" clip-rule="evenodd" d="M8.5 11.25a2.75 2.75 0 110-5.5 2.75 2.75 0 010 5.5zM8.5 4A4.505 4.505 0 004 8.5C4 10.981 6.019 13 8.5 13S13 10.981 13 8.5 10.981 4 8.5 4zM13 3a1 1 0 100 2 1 1 0 000-2z" fill="#fff"/></svg>