<svg width="17" height="17" viewBox="0 0 20 16" fill="none" xmlns="http://www.w3.org/2000/svg"><path fill-rule="evenodd" clip-rule="evenodd" d="M6.243 15.918c6.449 0 11.677-5.137 11.677-11.474 0-.158-.003-.315-.01-.472.233-.18 1.677-1.317 2.03-2.048 0 0-1.172.479-2.318.591.104-.072 1.58-1.06 1.78-2.237 0 0-.827.434-1.988.814-.192.063-.393.125-.6.182A4.119 4.119 0 0013.824 0C11.56 0 9.725 1.802 9.725 4.024c0 .314.037.62.106.913-.316-.013-5.133-.279-8.41-4.178 0 0-1.957 2.627 1.167 5.328 0 0-.949-.036-1.769-.518 0 0-.301 3.183 3.238 3.997 0 0-.696.26-1.807.074 0 0 .62 2.572 3.766 2.812 0 0-2.487 2.207-6.017 1.69a11.776 11.776 0 006.243 1.776z" fill="#fff"/></svg>