<svg width="1438" height="180" viewBox="0 0 1438 180" fill="none" xmlns="http://www.w3.org/2000/svg">
<path opacity="0.195709" fill-rule="evenodd" clip-rule="evenodd" d="M90.36 83.28V114.96H125.16C117.72 125.76 104.52 132.72 90.36 132.72C68.28 132.72 47.88 114.72 47.88 90C47.88 65.28 67.8 47.28 90.36 47.28C102.6 47.28 112.68 52.08 120.36 59.28L153.72 26.16C137.4 10.08 115.08 0 90.36 0C40.68 0 0.599976 40.32 0.599976 90C0.599976 139.68 40.68 180 90.36 180C140.04 180 180.36 139.68 180.36 90V83.28H90.36ZM365.16 180H310.68L282.84 132.24H253.56V180H206.28V0H282.12C318.6 0 348.36 29.76 348.36 66.24C348.36 85.44 339.96 102.72 327 114.72L365.16 180ZM388.44 180H500.28V141.36H435.72V108.24H492.84V68.4H435.72V39.12H500.28V0H388.44V180ZM645.96 180H534.12V0H645.96V39.12H581.4V68.4H638.52V108.24H581.4V141.36H645.96V180ZM679.8 180H791.64V141.36H727.08V108.24H784.2V68.4H727.08V39.12H791.64V0H679.8V180ZM929.88 0H977.16V180H957.72L872.76 94.8V180H825.48V0H844.68L929.88 84.96V0ZM1162.44 26.16C1146.12 9.84 1123.8 0 1099.08 0C1049.4 0 1009.08 40.32 1009.08 90C1009.08 139.68 1049.4 180 1099.08 180C1124.04 180 1146.6 169.68 1162.92 153.36L1129.32 120.24C1121.88 127.92 1111.32 132.24 1099.08 132.24C1074.6 132.24 1056.84 114.48 1056.84 90C1056.84 65.52 1074.6 47.76 1099.08 47.76C1111.32 47.76 1121.88 52.08 1129.32 59.52L1162.44 26.16ZM1285.08 0C1235.4 0 1195.32 40.56 1195.32 90.24C1195.32 139.92 1235.4 180 1285.08 180C1334.76 180 1375.08 139.92 1375.08 90.24C1375.08 40.56 1334.76 0 1285.08 0ZM1418.52 180C1407.72 180 1399.56 171.36 1399.56 160.56C1399.56 149.76 1407.72 141.6 1418.52 141.6C1429.32 141.6 1437.48 149.76 1437.48 160.56C1437.48 171.36 1429.32 180 1418.52 180Z" fill="#7A797A"/>
</svg>
