<svg width="17" height="17" viewBox="0 0 17 17" fill="none" xmlns="http://www.w3.org/2000/svg">
<mask id="mask0" mask-type="alpha" maskUnits="userSpaceOnUse" x="0" y="0" width="17" height="17">
<path fill-rule="evenodd" clip-rule="evenodd" d="M16.8967 0.103256H0V16.9999H16.8967V0.103256Z" fill="white"/>
</mask>
<g mask="url(#mask0)">
<path fill-rule="evenodd" clip-rule="evenodd" d="M15.1969 11.9664C15.1969 13.8077 13.7044 15.3003 11.863 15.3003H5.03345C3.19242 15.3003 1.69956 13.8077 1.69956 11.9664V5.13677C1.69956 3.29573 3.19242 1.80288 5.03345 1.80288H11.863C13.7044 1.80288 15.1969 3.29573 15.1969 5.13677V11.9664ZM11.863 0.103195H5.03345C2.25804 0.103195 -0.00012207 2.36136 -0.00012207 5.13677V11.9664C-0.00012207 14.7418 2.25804 16.9999 5.03345 16.9999H11.863C14.6388 16.9999 16.8966 14.7418 16.8966 11.9664V5.13677C16.8966 2.36136 14.6388 0.103195 11.863 0.103195Z" fill="white"/>
</g>
<path fill-rule="evenodd" clip-rule="evenodd" d="M8.50016 11.2498C6.98141 11.2498 5.75053 10.0189 5.75053 8.50016C5.75053 6.98141 6.98141 5.75053 8.50016 5.75053C10.0189 5.75053 11.2498 6.98141 11.2498 8.50016C11.2498 10.0186 10.0186 11.2498 8.50016 11.2498ZM8.50016 4C6.01895 4 4 6.01895 4 8.50016C4 10.9814 6.01895 13 8.50016 13C10.9814 13 13 10.9814 13 8.50016C13 6.01895 10.9814 4 8.50016 4Z" fill="white"/>
<path fill-rule="evenodd" clip-rule="evenodd" d="M13 3C12.4477 3 12 3.44768 12 4C12 4.55232 12.4477 5 13 5C13.5523 5 14 4.55232 14 4C14 3.44768 13.5523 3 13 3Z" fill="white"/>
</svg>
