<svg width="17" height="17" viewBox="0 0 20 16" fill="none" xmlns="http://www.w3.org/2000/svg">
<path fill-rule="evenodd" clip-rule="evenodd" d="M6.24336 15.9184C12.6919 15.9184 17.9197 10.7808 17.9197 4.44352C17.9197 4.28571 17.9168 4.12863 17.9101 3.97229C18.1435 3.79183 19.5865 2.65501 19.9396 1.92441C19.9396 1.92441 18.768 2.40295 17.6216 2.51546C17.7264 2.44313 19.2029 1.45536 19.4029 0.277629C19.4029 0.277629 18.5747 0.712337 17.4142 1.09225C17.2224 1.15508 17.0209 1.21718 16.8142 1.27417C16.0663 0.489504 15.0032 0 13.8234 0C11.5597 0 9.7256 1.80167 9.7256 4.02416C9.7256 4.33832 9.76277 4.64371 9.83191 4.93668C9.51595 4.92426 4.69925 4.65832 1.42293 0.759096C1.42293 0.759096 -0.535272 3.38634 2.58938 6.08738C2.58938 6.08738 1.64002 6.05085 0.820008 5.56938C0.820008 5.56938 0.518917 8.75189 4.05841 9.56578C4.05841 9.56578 3.36181 9.82514 2.25112 9.6403C2.25112 9.6403 2.87189 12.212 6.01661 12.4524C6.01661 12.4524 3.52982 14.6595 0 14.1423C1.80654 15.2674 3.94838 15.9184 6.24336 15.9184Z" fill="white"/>
</svg>
